<?xml version="1.0" encoding="UTF-8"?>
<svg width="45px" height="45px" viewBox="0 0 45 45" version="1.1" xmlns="http://www.w3.org/2000/svg" xmlns:xlink="http://www.w3.org/1999/xlink">
    <!-- Generator: Sketch 43.2 (39069) - http://www.bohemiancoding.com/sketch -->
    <title>Footer-Logo</title>
    <desc>Created with Sketch.</desc>
    <defs>
        <polygon id="path-1" points="16.5103416 0.0444978947 16.5103416 23.7133938 5.63233377e-05 23.7133938 5.63233377e-05 0.0444978947"></polygon>
        <polygon id="path-3" points="16.5103416 0.038900587 16.5103416 23.7078947 5.63233377e-05 23.7078947 5.63233377e-05 0.038900587 16.5103416 0.038900587"></polygon>
    </defs>
    <g id="Page-1" stroke="none" stroke-width="1" fill="none" fill-rule="evenodd">
        <g id="Home-Page" transform="translate(-115.000000, -765.000000)">
            <g id="Footer" transform="translate(115.000000, 765.000000)">
                <g id="Footer-Logo">
                    <circle id="Oval" fill="#FFFFFF" cx="22.5" cy="22.5" r="22.5"></circle>
                    <g id="Page-1" transform="translate(14.192308, 9.000000)">
                        <g id="Group-3" transform="translate(0.000000, 0.095814)">
                            <mask id="mask-2" fill="white">
                                <use xlink:href="#path-1"></use>
                            </mask>
                            <g id="Clip-2"></g>
                            <path d="M9.38577731,0.0444978947 L5.63233377e-05,0.0444978947 L5.63233377e-05,23.7133938 L13.8357434,12.6537311 C19.0742362,8.46627158 16.1020537,0.0444978947 9.38577731,0.0444978947" id="Fill-1" fill="#29ABE2" opacity="0.5" mask="url(#mask-2)"></path>
                        </g>
                        <g id="Group-6" transform="translate(0.000000, 2.901482)">
                            <mask id="mask-4" fill="white">
                                <use xlink:href="#path-3"></use>
                            </mask>
                            <g id="Clip-5"></g>
                            <path d="M9.38577731,23.7079368 L5.63233377e-05,23.7079368 L5.63233377e-05,0.038900587 L13.8357434,11.0985633 C19.0742362,15.2860229 16.1020537,23.7079368 9.38577731,23.7079368" id="Fill-4" fill="#29ABE2" opacity="0.5" mask="url(#mask-4)"></path>
                        </g>
                    </g>
                </g>
            </g>
        </g>
    </g>
</svg>